<svg width="62" height="62" viewBox="0 0 62 62" fill="none" xmlns="http://www.w3.org/2000/svg">
<path d="M30.9994 0.166809C13.9794 0.166809 0.166016 13.9801 0.166016 31.0001C0.166016 48.0201 13.9794 61.8335 30.9994 61.8335C48.0194 61.8335 61.8327 48.0201 61.8327 31.0001C61.8327 13.9801 48.0194 0.166809 30.9994 0.166809ZM30.9994 55.6668C17.4018 55.6668 6.33268 44.5976 6.33268 31.0001C6.33268 17.4026 17.4018 6.33348 30.9994 6.33348C44.5969 6.33348 55.666 17.4026 55.666 31.0001C55.666 44.5976 44.5969 55.6668 30.9994 55.6668ZM42.9627 19.561L24.8327 37.691L19.036 31.8943C17.8335 30.6918 15.891 30.6918 14.6885 31.8943C13.486 33.0968 13.486 35.0393 14.6885 36.2418L22.6744 44.2276C23.8769 45.4301 25.8194 45.4301 27.0219 44.2276L47.341 23.9085C48.5435 22.706 48.5435 20.7635 47.341 19.561C46.1385 18.3585 44.1652 18.3585 42.9627 19.561Z" fill="#5BD721"/>
</svg>
