<svg xmlns="http://www.w3.org/2000/svg" viewBox="0 0 64 64" stroke-width="3" stroke="currentColor" fill="none"><path d="M56.58,28.81c0,10.72-11,19.41-24.58,19.41A29.53,29.53,0,0,1,28.33,48c-2.08-.24-7.92,7.19-9.79,6.56-1.51-.51.9-9-.43-9.73-6.46-3.5-10.69-9.37-10.69-16,0-10.72,11-19.4,24.58-19.4S56.58,18.09,56.58,28.81Z" stroke-linecap="round"/><polyline points="23.38 28.55 23.38 28.55 23.88 28.55" stroke-linecap="round"/><polyline points="32 28.55 32 28.55 32.5 28.55" stroke-linecap="round"/><polyline points="40.36 28.55 40.36 28.55 40.86 28.55" stroke-linecap="round"/></svg>